<svg width="60" height="60" viewBox="0 0 60 60" fill="none" xmlns="http://www.w3.org/2000/svg">
<circle cx="30" cy="30" r="30" fill="#E7F2FF"/>
<path d="M38 29H22M38 29C39.1046 29 40 29.8954 40 31V35C40 37.2091 38.2091 39 36 39H24C21.7909 39 20 37.2091 20 35V31C20 29.8954 20.8954 29 22 29M38 29V27C38 25.8954 37.1046 25 36 25M22 29V27C22 25.8954 22.8954 25 24 25M36 25H24M36 25V23C36 21.8954 35.1046 21 34 21H26C24.8954 21 24 21.8954 24 23V25M28 32H32" stroke="#08448C" stroke-width="1.5" stroke-linecap="round"/>
</svg>
