<svg width="16" height="16" viewBox="0 0 16 16" fill="none" xmlns="http://www.w3.org/2000/svg">
<path fill-rule="evenodd" clip-rule="evenodd" d="M8.72335 0.860967C8.22747 0.625772 7.65219 0.625771 7.15631 0.860966C6.81302 1.02378 6.56951 1.33198 6.35373 1.68032C6.13679 2.03054 5.89877 2.50659 5.60237 3.09942L5.60236 3.09944L5.59076 3.12265L5.35186 3.60045C5.14861 4.00695 5.08951 4.11348 5.0153 4.19115C4.93876 4.27126 4.84699 4.33526 4.74536 4.37938C4.64682 4.42216 4.52643 4.44079 4.07473 4.49099L3.85787 4.51508L3.83184 4.51798H3.83184C3.11977 4.59709 2.55094 4.66029 2.12029 4.74788C1.69557 4.83427 1.29974 4.96216 1.02267 5.24486C0.626232 5.64932 0.439599 6.21468 0.517312 6.77568C0.571627 7.16776 0.813515 7.5062 1.10333 7.82848C1.39719 8.15522 1.81659 8.54472 2.34161 9.03224L2.36079 9.05006L2.58975 9.26263C2.98744 9.63192 3.08941 9.73638 3.14654 9.84762C3.20552 9.96251 3.23694 10.0895 3.2383 10.2186C3.23961 10.3435 3.19726 10.486 3.01513 11.0051L3.00652 11.0296L3.00651 11.0297C2.73773 11.7957 2.52488 12.4023 2.40403 12.8743C2.28663 13.3327 2.22085 13.783 2.3739 14.1728C2.58927 14.7214 3.05587 15.1325 3.62721 15.2771C4.03207 15.3797 4.46656 15.2603 4.90268 15.0882C5.35039 14.9116 5.91731 14.6282 6.63211 14.2708L6.65551 14.2591L7.2113 13.9812C7.58604 13.7938 7.68837 13.7477 7.78657 13.7292C7.88784 13.7103 7.99183 13.7103 8.09309 13.7292C8.19129 13.7477 8.29362 13.7938 8.66836 13.9812L9.22415 14.2591L9.24762 14.2708C9.96239 14.6282 10.5293 14.9116 10.977 15.0882C11.4131 15.2603 11.8476 15.3797 12.2524 15.2771C12.8238 15.1325 13.2904 14.7214 13.5058 14.1728C13.6588 13.783 13.593 13.3327 13.4756 12.8743C13.3548 12.4023 13.1419 11.7957 12.8731 11.0296V11.0296L12.8645 11.0051C12.6824 10.486 12.6401 10.3435 12.6413 10.2186C12.6427 10.0895 12.6741 9.96251 12.7332 9.84762C12.7903 9.73638 12.8922 9.63192 13.2899 9.26263L13.5189 9.05006L13.5381 9.03217C14.0631 8.54466 14.4825 8.15522 14.7763 7.82848C15.0662 7.5062 15.308 7.16776 15.3624 6.77568C15.4401 6.21468 15.2535 5.64932 14.857 5.24486C14.5799 4.96216 14.1841 4.83427 13.7594 4.74788C13.3287 4.66029 12.7599 4.59709 12.0478 4.51798L12.0218 4.51508L11.805 4.49099C11.3532 4.44079 11.2328 4.42216 11.1343 4.37938C11.0327 4.33526 10.9409 4.27126 10.8644 4.19115C10.7902 4.11348 10.7311 4.00695 10.5278 3.60044L10.2889 3.12266L10.2773 3.09943C9.98087 2.50659 9.7429 2.03054 9.52595 1.68032C9.31019 1.33198 9.0667 1.02379 8.72335 0.860967Z" fill="#FFC250"/>
</svg>
